<svg width="512" height="512" viewBox="0 0 512 512" fill="none" xmlns="http://www.w3.org/2000/svg" role="img" aria-labelledby="title desc">
  <title id="title">540A Cleaning house logo</title>
  <desc id="desc">Warm illustrated house with brown roof, cream walls, red garage and green tree.</desc>
  <rect width="512" height="512" rx="112" fill="#FFF8E8"/>
  <circle cx="392" cy="150" r="84" fill="#EAF1DB"/>
  <path d="M393 292c34-25 55-66 55-111 0-41-15-72-36-72s-36 31-36 72c0 45 7 86 17 111Z" fill="#94B65B"/>
  <path d="M407 184v161" stroke="#F9F4E7" stroke-width="8" stroke-linecap="round"/>
  <path d="M407 246l-30-35M407 271l28-34M407 306l-24-22" stroke="#5D7D35" stroke-width="5" stroke-linecap="round"/>
  <path d="M86 243h252v139H86V243Z" fill="#FFF2CF" stroke="#2A1A0C" stroke-width="8" stroke-linejoin="round"/>
  <path d="M185 183h220v199H185V183Z" fill="#FFF2CF" stroke="#2A1A0C" stroke-width="8" stroke-linejoin="round"/>
  <path d="M48 255h179l-26 62H22l26-62Z" fill="#7B5235" stroke="#2A1A0C" stroke-width="8" stroke-linejoin="round"/>
  <path d="M174 176h257l-30 67H144l30-67Z" fill="#8C654A" stroke="#2A1A0C" stroke-width="8" stroke-linejoin="round"/>
  <path d="M255 156h190l-28 71H226l29-71Z" fill="#7B5235" stroke="#2A1A0C" stroke-width="8" stroke-linejoin="round"/>
  <path d="M313 179l-63 74h126l-63-74Z" fill="#FFF8E8" stroke="#2A1A0C" stroke-width="8" stroke-linejoin="round"/>
  <path d="M313 202l-38 51h76l-38-51Z" fill="#B17A3F" stroke="#2A1A0C" stroke-width="7" stroke-linejoin="round"/>
  <path d="M282 222h62v52h-62v-52Z" fill="#BDE4F8" stroke="#2A1A0C" stroke-width="7"/>
  <path d="M313 222v52M282 248h62" stroke="#2A1A0C" stroke-width="5"/>
  <path d="M112 298h82v84h-82v-84Z" fill="#A94F42" stroke="#2A1A0C" stroke-width="7"/>
  <path d="M112 326h82M112 354h82M139 298v84M167 298v84" stroke="#6F312A" stroke-width="5"/>
  <path d="M242 287h56v95h-56v-95Z" fill="#7B4E2D" stroke="#2A1A0C" stroke-width="7"/>
  <path d="M310 303h73v44h-73v-44Z" fill="#BDE4F8" stroke="#2A1A0C" stroke-width="7"/>
  <path d="M346 303v44" stroke="#2A1A0C" stroke-width="5"/>
  <path d="M98 214h62v47H98v-47Z" fill="#BDE4F8" stroke="#2A1A0C" stroke-width="7"/>
  <path d="M129 214v47" stroke="#2A1A0C" stroke-width="5"/>
  <path d="M214 341h82v41h-82v-41Z" fill="#A7A095" stroke="#2A1A0C" stroke-width="7"/>
  <path d="M223 352h65M233 365h56" stroke="#6F6A62" stroke-width="5" stroke-linecap="round"/>
  <path d="M394 121h35v77h-35v-77Z" fill="#FFF8E8" stroke="#2A1A0C" stroke-width="7"/>
  <path d="M389 105h45v21h-45v-21Z" fill="#8C654A" stroke="#2A1A0C" stroke-width="7"/>
  <path d="M399 91h25v16h-25V91Z" fill="#8C654A" stroke="#2A1A0C" stroke-width="7"/>
  <path d="M54 378h395" stroke="#2A1A0C" stroke-width="8" stroke-linecap="round"/>
  <path d="M92 380c9-22 39-22 48 0H92ZM354 381c9-24 43-24 52 0h-52Z" fill="#5D7D35"/>
</svg>
